<?xml version="1.0" encoding="UTF-8"?>
<svg width="1263px" height="451px" viewBox="0 0 1263 451" version="1.1" xmlns="http://www.w3.org/2000/svg" xmlns:xlink="http://www.w3.org/1999/xlink">
    <!-- Generator: Sketch 59.1 (86144) - https://sketch.com -->
    <title>kruk-logo_svg</title>
    <desc>Created with Sketch.</desc>
    <defs>
        <linearGradient x1="50.027618%" y1="-0.0142150803%" x2="50.027618%" y2="100.054141%" id="linearGradient-1">
            <stop stop-color="#BB3B8E" offset="0%"></stop>
            <stop stop-color="#B83A8D" offset="26.83%"></stop>
            <stop stop-color="#AE368A" offset="48.37%"></stop>
            <stop stop-color="#9D2F84" offset="68.09%"></stop>
            <stop stop-color="#85257C" offset="86.59%"></stop>
            <stop stop-color="#6F1C75" offset="100%"></stop>
        </linearGradient>
    </defs>
    <g id="Page-1" stroke="none" stroke-width="1" fill="none" fill-rule="evenodd">
        <g id="kruk-logo_svg" fill-rule="nonzero">
            <path d="M484.947368,238.074561 C484.947368,179.030702 437.04386,127.785088 378,131.127193 C367.416667,131.684211 357.947368,132.798246 354.605263,132.798246 C311.157895,132.798246 274.394737,107.175439 257.127193,70.4122807 C240.416667,29.1929825 200.311404,0.228070175 153.52193,0.228070175 C128.45614,0.228070175 105.618421,8.58333333 86.6798246,22.5087719 C86.6798246,22.5087719 73.8684211,33.6491228 68.8552632,39.2192982 C27.0789474,83.2236842 0.899122807,142.267544 0.899122807,207.438596 C0.899122807,341.679825 110.074561,450.855263 244.315789,450.855263 C360.732456,450.855263 457.653509,369.530702 482.162281,260.355263 L482.162281,260.355263 C483.833333,253.114035 484.947368,245.872807 484.947368,238.074561 Z" id="Path" fill="url(#linearGradient-1)"></path>
            <g id="Group" transform="translate(508.885965, 179.245614)" fill="#333333">
                <path d="M0.0131578947,0.899122807 L30.6491228,0.899122807 C53.4868421,0.899122807 69.0833333,10.9254386 69.0833333,30.9780702 C69.0833333,46.0175439 61.8421053,55.4868421 49.5877193,59.9429825 L75.7675439,97.2631579 L52.372807,97.2631579 L30.0921053,63.2850877 L29.5350877,63.2850877 L20.0657895,63.2850877 L20.0657895,97.2631579 L0.0131578947,97.2631579 L0.0131578947,0.899122807 Z M20.0657895,17.0526316 L20.0657895,47.6885965 L28.4210526,47.6885965 C41.2324561,47.6885965 48.4736842,42.6754386 48.4736842,31.5350877 C48.4736842,21.5087719 40.6754386,17.0526316 28.4210526,17.0526316 L20.0657895,17.0526316 Z" id="Shape"></path>
                <path d="M94.7061404,65.5131579 C96.377193,76.6535088 102.504386,83.3377193 112.530702,83.3377193 C119.77193,83.3377193 125.899123,78.8815789 128.684211,71.6403509 L144.280702,77.2105263 C140.381579,90.0219298 128.684211,99.4912281 112.530702,99.4912281 C90.25,99.4912281 76.3245614,83.8947368 76.3245614,61.0570175 C76.3245614,39.3333333 90.8070175,23.7368421 111.973684,23.7368421 C134.811404,23.7368421 145.951754,41.004386 145.951754,59.9429825 C145.951754,62.1710526 145.951754,64.3991228 145.394737,66.0701754 L94.7061404,66.0701754 L94.7061404,65.5131579 Z M94.7061404,54.372807 L125.899123,54.372807 C125.342105,46.0175439 119.214912,38.7763158 110.302632,38.7763158 C102.504386,38.7763158 96.377193,44.9035088 94.7061404,54.372807 Z" id="Shape"></path>
                <path d="M163.219298,74.9824561 C165.447368,80.5526316 169.903509,84.4517544 177.144737,83.8947368 C182.157895,83.8947368 185.5,81.6666667 185.5,77.7675439 C185.5,73.3114035 182.714912,71.6403509 172.688596,67.7412281 C159.877193,62.7280702 151.52193,56.0438596 151.52193,44.3464912 C151.52193,32.6491228 160.434211,23.1798246 176.030702,23.1798246 C191.627193,23.1798246 200.539474,29.8640351 202.767544,40.4473684 L188.842105,46.5745614 C187.171053,41.004386 182.714912,37.6622807 177.144737,37.6622807 C172.131579,37.6622807 169.903509,39.8903509 169.903509,43.2324561 C169.903509,47.1315789 173.245614,48.8026316 182.157895,52.7017544 C194.969298,58.2719298 203.881579,64.3991228 203.881579,76.6535088 C203.881579,87.2368421 195.526316,98.9342105 177.144737,98.9342105 C163.776316,98.9342105 152.078947,92.25 149.29386,81.1096491 L163.219298,74.9824561 Z" id="Path"></path>
                <path d="M227.276316,65.5131579 C228.947368,76.6535088 235.074561,83.3377193 245.100877,83.3377193 C252.342105,83.3377193 258.469298,78.8815789 261.254386,71.6403509 L276.850877,77.2105263 C272.951754,90.0219298 261.254386,99.4912281 245.100877,99.4912281 C222.820175,99.4912281 208.894737,83.8947368 208.894737,61.0570175 C208.894737,39.3333333 223.377193,23.7368421 244.54386,23.7368421 C267.381579,23.7368421 278.52193,41.004386 278.52193,59.9429825 C278.52193,62.1710526 278.52193,64.3991228 277.964912,66.0701754 L227.276316,66.0701754 L227.276316,65.5131579 Z M227.276316,54.372807 L258.469298,54.372807 C257.912281,46.0175439 251.785088,38.7763158 242.872807,38.7763158 C235.074561,38.7763158 228.947368,44.9035088 227.276316,54.372807 Z" id="Shape"></path>
                <path d="M338.679825,86.6798246 L338.679825,86.6798246 C332.552632,95.0350877 325.868421,99.4912281 315.285088,99.4912281 C296.903509,99.4912281 280.75,84.4517544 280.75,61.6140351 C280.75,38.7763158 295.789474,23.7368421 315.285088,23.7368421 C324.754386,23.7368421 332.552632,27.6359649 337.565789,34.877193 L338.122807,34.877193 L338.122807,24.8508772 L357.061404,24.8508772 L357.061404,97.2631579 L338.122807,97.2631579 L338.122807,86.6798246 L338.679825,86.6798246 Z M338.122807,61.0570175 C338.122807,48.8026316 329.767544,39.8903509 319.184211,39.8903509 C308.04386,39.8903509 300.245614,48.8026316 300.245614,61.0570175 C300.245614,73.3114035 308.600877,82.2236842 319.184211,82.2236842 C330.324561,82.2236842 338.122807,73.3114035 338.122807,61.0570175 Z" id="Shape"></path>
                <path d="M368.758772,24.8508772 L387.697368,24.8508772 L387.697368,35.9912281 L388.254386,35.9912281 C392.710526,27.6359649 399.951754,23.1798246 411.092105,23.1798246 L411.092105,41.5614035 C395.495614,41.5614035 387.697368,48.245614 387.697368,64.9561404 L387.697368,97.2631579 L368.758772,97.2631579 L368.758772,24.8508772 Z" id="Path"></path>
                <path d="M467.907895,96.1491228 C463.451754,98.377193 457.881579,98.9342105 452.868421,98.9342105 C429.473684,98.9342105 413.320175,82.7807018 413.320175,61.0570175 C413.320175,39.3333333 428.916667,23.1798246 452.868421,23.1798246 C458.438596,23.1798246 463.451754,24.2938596 467.907895,26.5219298 L467.907895,43.7894737 C464.008772,41.004386 458.995614,39.8903509 452.868421,39.8903509 C440.057018,39.8903509 432.258772,48.8026316 432.258772,60.5 C432.258772,73.3114035 440.614035,82.2236842 453.425439,82.2236842 C457.881579,82.2236842 463.451754,81.1096491 467.350877,78.8815789 L467.350877,96.1491228 L467.907895,96.1491228 Z" id="Path"></path>
                <path d="M475.70614,0.899122807 L494.644737,0.899122807 L494.644737,34.3201754 L495.201754,34.3201754 C499.657895,27.0789474 506.342105,23.1798246 517.482456,23.1798246 C535.307018,23.1798246 545.333333,35.4342105 545.333333,53.2587719 L545.333333,97.2631579 L526.394737,97.2631579 L526.394737,59.3859649 C526.394737,48.8026316 522.495614,39.8903509 510.798246,39.8903509 C500.214912,39.8903509 494.644737,47.6885965 494.644737,61.0570175 L494.644737,97.2631579 L475.70614,97.2631579 L475.70614,0.899122807 L475.70614,0.899122807 Z" id="Path"></path>
                <path d="M580.982456,0.899122807 L601.035088,0.899122807 L601.035088,55.4868421 C601.035088,72.754386 607.719298,82.2236842 621.087719,82.2236842 C634.45614,82.2236842 641.140351,72.754386 641.140351,55.4868421 L641.140351,0.899122807 L661.192982,0.899122807 L661.192982,55.4868421 C661.192982,83.3377193 647.267544,99.4912281 621.087719,99.4912281 C594.350877,99.4912281 581.539474,84.4517544 581.539474,55.4868421 L581.539474,0.899122807 L580.982456,0.899122807 Z" id="Path"></path>
                <polygon id="Path" points="673.447368 0.899122807 693.5 0.899122807 693.5 43.7894737 726.364035 0.899122807 750.315789 0.899122807 712.438596 47.1315789 753.657895 97.2631579 728.035088 97.2631579 693.5 53.8157895 693.5 97.2631579 673.447368 97.2631579 673.447368 0.899122807"></polygon>
            </g>
            <g id="Group" transform="translate(42.561404, 178.245614)" fill="#FFFFFF">
                <polygon id="Path" points="0.671052632 1.89912281 20.7236842 1.89912281 20.7236842 44.7894737 53.5877193 1.89912281 77.5394737 1.89912281 39.6622807 48.1315789 80.8815789 98.2631579 55.2587719 98.2631579 20.7236842 54.8157895 20.7236842 98.2631579 0.671052632 98.2631579 0.671052632 1.89912281"></polygon>
                <path d="M85.3377193,10.8114035 C85.3377193,5.24122807 89.7938596,0.228070175 95.9210526,0.228070175 C102.048246,0.228070175 106.504386,5.24122807 106.504386,10.8114035 C106.504386,16.9385965 102.048246,21.3947368 95.9210526,21.3947368 C89.7938596,21.3947368 85.3377193,16.9385965 85.3377193,10.8114035 Z M86.4517544,25.8508772 L105.390351,25.8508772 L105.390351,98.2631579 L86.4517544,98.2631579 L86.4517544,25.8508772 Z" id="Shape"></path>
                <path d="M170.561404,87.6798246 L170.561404,87.6798246 C164.991228,95.4780702 157.75,100.491228 147.723684,100.491228 C128.785088,100.491228 113.188596,85.4517544 113.188596,62.6140351 C113.188596,39.7763158 128.22807,24.7368421 147.723684,24.7368421 C157.192982,24.7368421 165.548246,28.6359649 170.004386,35.877193 L170.561404,35.877193 L170.561404,2.45614035 L189.5,2.45614035 L189.5,98.2631579 L170.561404,98.2631579 L170.561404,87.6798246 L170.561404,87.6798246 Z M170.004386,62.0570175 C170.004386,49.8026316 161.649123,40.8903509 151.065789,40.8903509 C140.482456,40.8903509 132.127193,49.8026316 132.127193,62.0570175 C132.127193,74.3114035 140.482456,83.2236842 151.065789,83.2236842 C161.649123,83.2236842 170.004386,74.3114035 170.004386,62.0570175 Z" id="Shape"></path>
                <path d="M200.640351,25.8508772 L219.578947,25.8508772 L219.578947,35.3201754 L220.135965,35.3201754 C224.592105,28.0789474 231.833333,24.1798246 242.416667,24.1798246 C260.798246,24.1798246 270.267544,36.4342105 270.267544,54.2587719 L270.267544,98.2631579 L251.328947,98.2631579 L251.328947,60.3859649 C251.328947,49.8026316 247.429825,40.8903509 235.732456,40.8903509 C225.149123,40.8903509 219.578947,48.6885965 219.578947,62.0570175 L219.578947,98.2631579 L200.640351,98.2631579 L200.640351,25.8508772 L200.640351,25.8508772 Z" id="Path"></path>
                <path d="M295.333333,66.5131579 C297.004386,77.6535088 303.131579,84.3377193 313.157895,84.3377193 C320.399123,84.3377193 326.526316,79.8815789 329.311404,72.6403509 L344.907895,78.2105263 C341.008772,91.0219298 329.311404,100.491228 313.157895,100.491228 C290.877193,100.491228 276.951754,84.8947368 276.951754,62.0570175 C276.951754,40.3333333 291.434211,24.7368421 312.600877,24.7368421 C335.438596,24.7368421 346.578947,42.004386 346.578947,60.9429825 C346.578947,63.1710526 346.578947,65.3991228 346.02193,67.0701754 L295.333333,67.0701754 L295.333333,66.5131579 Z M295.333333,55.372807 L326.526316,55.372807 C325.969298,47.0175439 319.842105,39.7763158 310.929825,39.7763158 C303.131579,39.7763158 297.004386,45.9035088 295.333333,55.372807 Z" id="Shape"></path>
                <polygon id="Path" points="372.758772 91.0219298 342.679825 25.8508772 362.732456 25.8508772 381.671053 69.2982456 397.824561 25.8508772 417.320175 25.8508772 378.328947 125 359.390351 125"></polygon>
            </g>
        </g>
    </g>
</svg>